<?xml version="1.0" encoding="UTF-8"?>
<svg id="Layer_1" data-name="Layer 1" xmlns="http://www.w3.org/2000/svg" viewBox="0 0 512 512">
  <defs>
    <style>
      .cls-1 {
        fill: none;
        stroke: #fff;
        stroke-miterlimit: 10;
        stroke-width: 30px;
      }
    </style>
  </defs>
  <path class="cls-1" d="M240.4,350.53c0,46.19-37.44,83.62-83.62,83.62s-83.61-37.43-83.61-83.62,37.43-83.61,83.61-83.61,83.62,37.43,83.62,83.61Z"/>
  <path class="cls-1" d="M438.85,350.53c0,46.19-37.44,83.62-83.62,83.62s-83.62-37.43-83.62-83.62,37.44-83.61,83.62-83.61,83.62,37.43,83.62,83.61Z"/>
  <path class="cls-1" d="M240.4,350.53h31.21-31.21Z"/>
  <line class="cls-1" x1="19.78" y1="231.35" x2="492.22" y2="231.35"/>
  <polygon class="cls-1" points="386.14 231.35 126.96 231.35 207.29 68.8 256.12 85.42 300.56 68.8 386.14 231.35"/>
</svg>