<?xml version="1.0" encoding="UTF-8"?>
<svg id="Layer_1" data-name="Layer 1" xmlns="http://www.w3.org/2000/svg" viewBox="0 0 563.12 256">
  <defs>
    <style>
      .cls-1 {
        font-family: AcuminConcept-ExtraCondBold, 'Acumin Variable Concept';
        font-variation-settings: 'wght' 700, 'wdth' 50, 'slnt' 0;
      }

      .cls-1, .cls-2 {
        fill: #da1c5c;
      }

      .cls-1, .cls-3 {
        font-size: 172px;
        font-weight: 700;
      }

      .cls-2 {
        stroke-width: 0px;
      }

      .cls-3 {
        font-family: AcuminConcept-ExtraCondBoldItalic, 'Acumin Variable Concept';
        font-style: italic;
        font-variation-settings: 'wght' 700, 'wdth' 50, 'slnt' 12;
      }

      .cls-3, .cls-4 {
        fill: #000;
      }

      .cls-5 {
        letter-spacing: 0em;
      }

      .cls-6 {
        letter-spacing: 0em;
      }

      .cls-7 {
        letter-spacing: 0em;
      }

      .cls-4 {
        stroke: #da1c5c;
        stroke-linecap: round;
        stroke-miterlimit: 10;
        stroke-width: 10px;
      }
    </style>
  </defs>
  <text class="cls-3" transform="translate(144.09 183.97)"><tspan x="0" y="0">I</tspan><tspan class="cls-6" x="32.85" y="0">R</tspan><tspan class="cls-7" x="97" y="0">E</tspan><tspan class="cls-5" x="153.93" y="0">SON</tspan></text>
  <path class="cls-2" d="M97.55,19.49c15.56,0,30.48,4.71,43.16,13.63,8.22,5.79,15.12,13.05,20.38,21.4h-20.38c-8.56,0-15.53,6.97-15.53,15.53v106.02c0,7.5,4.69,14.39,11.36,18.12-.27,2.92-.43,5.85-.47,8.78H59.06c-.08-11.27-1.99-22.46-5.69-33.27-3.69-10.81-9.09-21.03-16.05-30.37-9.34-12.54-14.45-27.44-14.79-43.09-.44-20.07,7.06-39.16,21.13-53.74,14.05-14.56,32.81-22.73,52.84-23.01.36,0,.71,0,1.06,0h0M97.55,9.49c-.4,0-.8,0-1.2,0C49.33,10.15,11.48,49.46,12.52,96.47c.4,18.28,6.58,35.15,16.77,48.84,6.31,8.47,11.25,17.79,14.61,27.63,3.37,9.85,5.16,20.22,5.16,30.77,0,5.12,4.15,9.27,9.26,9.27h79.3c2.33,0,4.44-.94,5.97-2.47,1.53-1.53,2.47-3.64,2.47-5.97,0-5.86.51-11.69,1.51-17.42h0c-6.1,0-12.39-4.94-12.39-11.04v-106.02c0-3.05,2.48-5.53,5.53-5.53h36.46c-12.14-32.17-43.2-55.04-79.62-55.04h0Z"/>
  <line class="cls-4" x1="56.62" y1="221.1" x2="138.5" y2="221.1"/>
  <line class="cls-4" x1="65.21" y1="234.83" x2="129.91" y2="234.83"/>
  <line class="cls-4" x1="76.97" y1="249.34" x2="117.21" y2="249.34"/>
  <text class="cls-1" transform="translate(52.01 184.81)"><tspan x="0" y="0">M</tspan></text>
</svg>